HIERARCHY
ROOT Hips
{
 OFFSET 0.000000 0.000000 0.000000
 CHANNELS 6 Xposition Yposition Zposition Yrotation Xrotation Zrotation
 JOINT Chest
 {
  OFFSET 0.000000 9.585900 0.002600
  CHANNELS 3 Yrotation Xrotation Zrotation
  JOINT Chest2
  {
   OFFSET 0.000000 9.601200 -0.005300
   CHANNELS 3 Yrotation Xrotation Zrotation
   JOINT Chest3
   {
    OFFSET 0.000000 9.561800 0.000000
    CHANNELS 3 Yrotation Xrotation Zrotation
    JOINT Chest4
    {
     OFFSET 0.000000 9.552100 0.000000
     CHANNELS 3 Yrotation Xrotation Zrotation
     JOINT Neck
     {
      OFFSET 0.000000 14.453000 0.000000
      CHANNELS 3 Yrotation Xrotation Zrotation
      JOINT Head
      {
       OFFSET 0.000000 8.936500 -0.011300
       CHANNELS 3 Yrotation Xrotation Zrotation
       End Site
       {
        OFFSET 0.000000 17.073600 -0.006000
       }
      }
     }
     JOINT RightCollar
     {
      OFFSET -2.921100 9.558500 0.000000
      CHANNELS 3 Yrotation Xrotation Zrotation
      JOINT RightShoulder
      {
       OFFSET -13.519700 0.000000 0.000000
       CHANNELS 3 Yrotation Xrotation Zrotation
       JOINT RightElbow
       {
        OFFSET 0.000000 -29.696600 0.000000
        CHANNELS 3 Yrotation Xrotation Zrotation
        JOINT RightWrist
        {
         OFFSET 0.000000 -24.004700 0.000000
         CHANNELS 3 Yrotation Xrotation Zrotation
         End Site
         {
          OFFSET 0.000000 -17.728500 0.000000
         }
        }
       }
      }
     }
     JOINT LeftCollar
     {
      OFFSET 2.921100 9.558500 0.000000
      CHANNELS 3 Yrotation Xrotation Zrotation
      JOINT LeftShoulder
      {
       OFFSET 13.519700 0.000000 0.000000
       CHANNELS 3 Yrotation Xrotation Zrotation
       JOINT LeftElbow
       {
        OFFSET 0.000000 -29.696600 0.000000
        CHANNELS 3 Yrotation Xrotation Zrotation
        JOINT LeftWrist
        {
         OFFSET 0.000000 -24.004700 0.000000
         CHANNELS 3 Yrotation Xrotation Zrotation
         End Site
         {
          OFFSET 0.000000 -17.728500 0.000000
         }
        }
       }
      }
     }
    }
   }
  }
 }
 JOINT RightHip
 {
  OFFSET -7.771700 -0.012900 -0.001300
  CHANNELS 3 Yrotation Xrotation Zrotation
  JOINT RightKnee
  {
   OFFSET 0.000000 -40.869800 0.001200
   CHANNELS 3 Yrotation Xrotation Zrotation
   JOINT RightAnkle
   {
    OFFSET 0.000000 -39.717900 0.002100
    CHANNELS 3 Yrotation Xrotation Zrotation
    JOINT RightToe
    {
     OFFSET 0.000000 -4.965400 11.033500
     CHANNELS 3 Yrotation Xrotation Zrotation
     End Site
     {
      OFFSET 0.000000 -1.423100 5.872300
     }
    }
   }
  }
 }
 JOINT LeftHip
 {
  OFFSET 7.771700 -0.012900 -0.001300
  CHANNELS 3 Yrotation Xrotation Zrotation
  JOINT LeftKnee
  {
   OFFSET 0.000000 -40.869800 0.001200
   CHANNELS 3 Yrotation Xrotation Zrotation
   JOINT LeftAnkle
   {
    OFFSET 0.000000 -39.717900 0.002100
    CHANNELS 3 Yrotation Xrotation Zrotation
    JOINT LeftToe
    {
     OFFSET 0.000000 -4.965400 11.033500
     CHANNELS 3 Yrotation Xrotation Zrotation
     End Site
     {
      OFFSET 0.000000 -1.423100 5.872300
     }
    }
   }
  }
 }
}
MOTION
Frames: 12
Frame Time: 0.008333
0.000000 85.388000 0.000000 0.000000 -5.767877 0.000000 0.000000 11.653817 0.000000 0.000000 -5.885947 0.000000 0.000000 -0.000000 0.000000 0.000000 -0.000000 0.000000 0.000000 12.528835 0.000000 0.000000 0.711642 0.000000 0.000000 -0.000000 0.000000 0.000000 0.000000 -90.000000 0.000000 -2.309062 0.000000 0.000000 2.309062 0.000000 0.000000 -0.000000 0.000000 0.000000 -0.000000 90.000000 0.000000 -2.309062 0.000000 0.000000 2.309062 0.000000 0.000000 8.520406 0.000000 0.000000 1.905762 0.000000 -0.000000 -4.658285 0.000000 0.000000 -0.000000 0.000000 0.000000 8.520406 0.000000 0.000000 1.905762 0.000000 -0.000000 -4.658285 0.000000 0.000000 -0.000000 0.000000
-33.762805 50.880030 5.539327 161.440128 -6.581040 -1.477471 3.676416 6.718487 2.090533 0.123968 0.291428 0.038566 0.217376 0.510992 0.068000 2.747931 6.312370 0.983178 2.707906 14.893195 -0.430392 5.230713 -8.071699 -1.817884 -0.214842 5.050560 -1.989454 -11.310200 -3.959310 -9.753784 -47.599542 -73.155528 82.736935 -2.944569 -0.477338 -31.816345 -1.645097 3.058667 1.753388 16.782485 3.020524 10.551914 56.241764 -71.657324 -96.065565 4.071536 0.250421 14.870920 -4.235527 -73.357129 2.038880 -105.576563 83.245175 -103.606829 -2.896689 -13.454876 0.118418 0.430546 1.059591 -0.075250 -19.018408 -76.888698 36.090680 108.063609 77.940986 105.127896 -14.366034 -19.800809 -0.988738 -1.633788 -2.035447 -0.603887
-33.747719 50.876121 5.511708 161.465458 -6.589809 -1.410989 3.707473 6.757135 2.008621 0.147588 0.295983 0.028542 0.220827 0.506789 0.064749 2.795557 6.277678 0.946632 2.716462 14.997265 -0.349881 5.212794 -7.882102 -1.665708 -0.302045 5.004241 -1.976231 -11.448028 -3.827547 -9.672372 -47.548687 -72.812838 82.569830 -3.111055 -0.537138 -32.135359 -1.364427 3.462511 1.824591 17.366965 3.391616 9.298678 56.868295 -72.049237 -96.481728 4.017162 0.411008 15.018232 -4.366437 -73.355018 1.987729 -106.315649 83.303195 -104.289170 -2.851524 -13.508563 0.012644 0.426842 1.054710 -0.039505 -18.597798 -76.915787 35.693891 108.174772 77.888561 105.217390 -14.414443 -19.803465 -0.933229 -1.666367 -2.010483 -0.642583
-33.717249 50.871278 5.486082 161.510650 -6.588063 -1.414845 3.683692 6.764700 2.002501 0.170229 0.301914 0.019440 0.268354 0.515510 0.043840 2.840231 6.248909 0.907824 2.731236 15.093720 -0.264495 5.205249 -7.706545 -1.507186 -0.383822 4.963726 -1.957347 -11.575661 -3.709944 -9.583478 -47.649347 -72.521924 82.523387 -3.251761 -0.573252 -32.474662 -1.044086 3.888894 1.954606 17.792049 3.720930 8.009708 57.504594 -72.438490 -96.835002 3.967547 0.557779 15.173398 -4.565692 -73.355231 2.065354 -106.955212 83.308141 -104.845539 -2.859142 -13.544273 -0.080391 0.475526 1.027160 0.000074 -18.461049 -76.922625 35.611044 108.276598 77.903673 105.309718 -14.529994 -19.846974 -0.899440 -1.602040 -1.944773 -0.635991
-33.689995 50.864885 5.460295 161.564403 -6.561091 -1.380506 3.713084 6.766471 1.937929 0.195507 0.302816 0.008761 0.249463 0.505922 0.048984 2.882739 6.222585 0.866139 2.750863 15.182632 -0.176727 5.206348 -7.544848 -1.346371 -0.484643 4.948468 -1.898343 -11.761696 -3.571393 -9.424798 -47.784737 -72.418800 82.565128 -3.372258 -0.593498 -32.824643 -0.694975 4.332760 2.133144 18.071407 3.992225 6.706189 58.101822 -72.804205 -97.100615 3.923360 0.686087 15.345001 -4.637769 -73.386468 2.008175 -107.637496 83.314746 -105.457413 -2.848126 -13.596322 -0.176441 0.497354 1.014889 0.047691 -18.334051 -76.949640 35.489247 108.367800 77.903596 105.365092 -14.544923 -19.851481 -0.923485 -1.620826 -1.909459 -0.608283
-33.670811 50.857207 5.432911 161.610724 -6.517130 -1.278922 3.741553 6.751310 1.805040 0.223272 0.303219 -0.001595 0.230371 0.497440 0.053945 2.922757 6.197118 0.820405 2.774868 15.263195 -0.088962 5.216114 -7.398441 -1.187714 -0.585419 4.939307 -1.834233 -11.834366 -3.526164 -9.286144 -47.957696 -72.318399 82.530622 -3.475434 -0.597449 -33.173912 -0.343042 4.767408 2.334660 18.258448 4.213167 5.434139 58.622956 -73.131651 -97.283916 3.889219 0.798694 15.535981 -4.734581 -73.459410 1.901877 -108.651464 83.386752 -106.472425 -2.725504 -13.615974 -0.226398 0.399957 0.968924 0.012785 -17.956370 -76.998123 35.132736 108.437340 77.923855 105.385632 -14.646034 -19.853232 -0.927870 -1.558978 -1.874310 -0.568747
-33.643413 50.849240 5.407454 161.655649 -6.474607 -1.212923 3.780281 6.732425 1.710068 0.226547 0.296676 -0.005160 0.233322 0.494510 0.049827 2.961421 6.172264 0.771166 2.802456 15.335592 -0.003217 5.233749 -7.266901 -1.034719 -0.659816 4.920159 -1.790146 -11.892145 -3.514733 -9.134255 -48.210801 -72.259794 82.537236 -3.559414 -0.587326 -33.509783 -0.016371 5.146481 2.528561 18.417138 4.414243 4.258564 59.031209 -73.404199 -97.396282 3.871953 0.892809 15.744104 -4.785864 -73.522898 1.825906 -109.502815 83.418712 -107.303478 -2.681093 -13.643143 -0.277035 0.364419 0.935511 0.013200 -17.762616 -77.025525 34.953481 108.492907 77.933346 105.386602 -14.720622 -19.882419 -0.907294 -1.517440 -1.812485 -0.570338
-33.614567 50.840889 5.384258 161.717841 -6.423659 -1.149669 3.803223 6.700462 1.613851 0.229380 0.292046 -0.005240 0.236346 0.491622 0.045508 3.001008 6.146910 0.718969 2.831477 15.401282 0.078681 5.255822 -7.147525 -0.889772 -0.690760 4.876488 -1.750829 -11.979645 -3.518558 -8.971066 -48.513345 -72.260909 82.587230 -3.622241 -0.568514 -33.825658 0.272717 5.432497 2.696439 18.587857 4.620707 3.237598 59.298107 -73.602805 -97.449503 3.873952 0.966228 15.963174 -4.778047 -73.592813 1.711873 -110.286334 83.432845 -108.062786 -2.679912 -13.682106 -0.327061 0.359336 0.916064 0.033467 -17.614406 -77.064376 34.786534 108.535897 77.929612 105.377286 -14.755147 -19.898630 -0.889179 -1.546045 -1.760180 -0.587666
-33.587447 50.832420 5.361373 161.780883 -6.373193 -1.068160 3.896769 6.673632 1.490968 0.159930 0.281754 0.017008 0.239316 0.488516 0.040927 3.040656 6.119810 0.663813 2.861005 15.461931 0.154769 5.281296 -7.037313 -0.756102 -0.732431 4.835047 -1.680530 -12.046880 -3.576932 -8.836489 -48.856766 -72.310745 82.682032 -3.660805 -0.544445 -34.115400 0.529682 5.618489 2.837398 18.768648 4.835577 2.400932 59.440885 -73.720435 -97.471520 3.895523 1.020516 16.181416 -4.680944 -73.666450 1.524701 -111.061406 83.439034 -108.820223 -2.702723 -13.728144 -0.371204 0.369685 0.905148 0.059167 -17.446984 -77.091767 34.609394 108.576178 77.949251 105.347488 -14.842541 -19.902714 -0.891286 -1.526535 -1.715144 -0.566877
-33.557175 50.823952 5.341519 161.848250 -6.318726 -1.003934 3.940601 6.638730 1.404543 0.137732 0.276471 0.020438 0.241850 0.484969 0.036341 3.076626 6.090412 0.608265 2.891926 15.519358 0.222644 5.312604 -6.932782 -0.638425 -0.778084 4.797408 -1.601648 -12.104582 -3.683451 -8.712511 -49.228096 -72.402533 82.814022 -3.675403 -0.522629 -34.365546 0.762045 5.724301 2.957585 18.937549 5.043923 1.753800 59.521503 -73.761811 -97.506179 3.931444 1.058667 16.384156 -4.599666 -73.739258 1.367188 -111.773317 83.438209 -109.514101 -2.717036 -13.780934 -0.405592 0.365326 0.900267 0.074246 -17.399373 -77.100472 34.557278 108.587501 77.990285 105.272139 -14.945329 -19.934762 -0.885804 -1.462810 -1.636519 -0.544897
-33.527751 50.815315 5.324576 161.926468 -6.254045 -0.937058 3.901058 6.586197 1.322265 0.138372 0.275385 0.019148 0.291294 0.486445 0.026248 3.108355 6.059514 0.554036 2.924080 15.575208 0.281519 5.349589 -6.830683 -0.538010 -0.812863 4.756321 -1.527363 -12.168040 -3.824925 -8.587722 -49.621166 -72.532130 82.980303 -3.669529 -0.506424 -34.559533 0.966951 5.771959 3.061446 19.079624 5.226914 1.295289 59.606585 -73.735737 -97.593251 3.970870 1.090103 16.555579 -4.461788 -73.816181 1.147264 -112.424306 83.436573 -110.142606 -2.709075 -13.856813 -0.425524 0.333513 0.914706 0.068332 -17.359325 -77.128987 34.480944 108.572664 78.017544 105.181949 -15.005066 -19.944762 -0.880589 -1.425944 -1.574257 -0.538534
-33.501887 50.806303 5.310772 162.067409 -6.172112 -0.860302 3.797116 6.518633 1.224419 0.209001 0.280740 0.013827 0.268847 0.479629 0.025416 3.137772 6.027979 0.500410 2.956199 15.631409 0.331777 5.389560 -6.727473 -0.453630 -0.837912 4.712416 -1.456536 -12.228603 -3.998100 -8.461559 -50.039088 -72.692799 83.180486 -3.647233 -0.493608 -34.690375 1.133193 5.772910 3.149452 19.198457 5.372925 1.024793 59.737137 -73.660920 -97.757392 4.003171 1.122056 16.680219 -4.391529 -73.922857 0.940194 -113.089519 83.416402 -110.813744 -2.693192 -13.868954 -0.468424 0.303824 0.875095 0.104245 -17.350263 -77.176305 34.364886 108.543530 78.042354 105.080084 -15.147422 -20.003707 -0.886378 -1.311341 -1.460995 -0.498004
